PathFileType	4	(X/Y/Z)	W18_1_OpenSim.trc																																																																																																																						
DataRate	CameraRate	NumFrames	NumMarkers	Units	OrigDataRate	OrigDataStartFrame	OrigNumFrames																																																																																																																		
100	100	6	40	mm	100	1126	3000																																																																																																																		
Frame#	Time	R.ASIS			R.PSIS			S2			L.PSIS			L.ASIS			R.TH1			R.TH2			R.TH3			R.MKnee			R.Knee			R.SH1			R.SH2			R.SH3			R.SH4			R.Ankle			R.MAnkle			R.Heel			R.MT5			R.MT1			L.TH1			L.TH2			L.TH3			L.TH4			L.MKnee			L.Knee			L.SH1			L.SH2			L.SH3			L.Ankle			L.MAnkle			L.Heel			L.MT5			L.MT1			R.Acr			L.Acr			C7			T10			Clav			Sternum			R.Back		
		X1	Y1	Z1	X2	Y2	Z2	X3	Y3	Z3	X4	Y4	Z4	X5	Y5	Z5	X6	Y6	Z6	X7	Y7	Z7	X8	Y8	Z8	X9	Y9	Z9	X10	Y10	Z10	X11	Y11	Z11	X12	Y12	Z12	X13	Y13	Z13	X14	Y14	Z14	X15	Y15	Z15	X16	Y16	Z16	X17	Y17	Z17	X18	Y18	Z18	X19	Y19	Z19	X20	Y20	Z20	X21	Y21	Z21	X22	Y22	Z22	X23	Y23	Z23	X24	Y24	Z24	X25	Y25	Z25	X26	Y26	Z26	X27	Y27	Z27	X28	Y28	Z28	X29	Y29	Z29	X30	Y30	Z30	X31	Y31	Z31	X32	Y32	Z32	X33	Y33	Z33	X34	Y34	Z34	X35	Y35	Z35	X36	Y36	Z36	X37	Y37	Z37	X38	Y38	Z38	X39	Y39	Z39	X40	Y40	Z40
1126	11.25	935.4941	1014.6151	-434.7309	745.9946	1024.8004	-538.5699	739.5654	1021.4651	-583.9745	747.5897	1028.6614	-633.6645	927.4246	1026.01	-728.2667	868.1722	684.7847	-415.0882	786.9419	694.7281	-405.8825	773.7616	585.7874	-415.1139	777.085	457.1409	-535.3854	770.0498	467.4579	-419.1723	661.5555	338.497	-410.3117	583.5565	258.1959	-423.9499	602.6295	397.1646	-404.3701	525.3208	313.9097	-408.5779	421.5649	185.7903	-410.5843	457.0182	172.3437	-502.5288	359.5258	215.1397	-467.181	450.3386	68.1703	-387.5587	477.4117	44.8022	-481.3399	1009.9263	762.5133	-739.8481	1044.7571	660.0351	-726.5496	933.5444	730.6539	-754.3902	970.923	629.5527	-734.7186	1062.7256	511.0054	-603.0337	1071.9579	517.5911	-711.5221	1103.6423	386.5839	-729.4135	1023.4918	376.9908	-741.6068	1038.7208	268.6636	-735.1827	1112.8894	81.0666	-732.7728	1140.8175	91.7557	-631.6998	1052.8661	34.8723	-677.8455	1224.6941	45.5578	-746.4902	1262.9526	58.9448	-646.072	899.1508	1427.645	-430.1538	836.8975	1407.7098	-749.251	816.7589	1458.8567	-584.0666	781.6036	1131.3092	-569.7944	950.464	1359.887	-600.02	981.7823	1218.8574	-588.7214	747.8184	1363.7764	-485.4053
1127	11.26	936.4499	1015.6457	-436.9167	746.6469	1025.0098	-539.7919	740.2626	1022.0577	-585.2119	748.2713	1029.7815	-634.8445	928.5043	1028.7539	-730.0304	876.5835	684.0322	-417.862	795.4747	691.4175	-408.0701	785.4787	582.1282	-416.8012	792.2231	453.7361	-536.6657	784.6461	464.6854	-420.3317	672.5386	339.7131	-411.2212	591.5434	262.2613	-424.5192	615.8727	400.6394	-405.6844	535.4778	320.2443	-409.2401	427.1726	197.7621	-410.5862	461.4307	181.0627	-502.5888	368.4772	233.2421	-467.3674	444.681	77.73	-387.9512	469.5143	50.3213	-481.2852	1011.2626	764.4842	-741.5294	1045.6423	661.8632	-728.3021	934.8569	732.9671	-756.6331	971.6659	631.6752	-737.0818	1061.5073	511.7642	-604.3901	1072.0439	518.5665	-712.7153	1100.9268	386.4449	-730.0373	1020.7263	379.4279	-745.0107	1032.3885	270.5671	-738.5344	1097.8877	80.5099	-733.9913	1125.8249	91.0327	-632.85	1035.988	36.168	-679.0917	1208.86	40.9586	-746.9514	1247.3281	53.5916	-646.4923	898.8281	1429.204	-431.8873	838.7829	1409.312	-751.3713	817.277	1460.4114	-586.0875	782.0851	1132.7833	-571.5092	950.6859	1361.447	-601.4162	982.2758	1220.4906	-589.9866	747.8031	1365.3018	-487.7503
1128	11.27	936.7623	1016.8625	-438.6771	746.9226	1025.3014	-540.9078	740.5992	1022.7034	-586.3453	748.6085	1030.9429	-635.9192	929.1928	1031.5764	-731.6919	885.3765	683.7269	-420.6527	804.441	688.4019	-410.1432	797.8933	578.8329	-418.5966	807.9177	451.0813	-538.2958	800.082	462.4119	-421.7373	685.0066	341.0955	-412.4239	601.3207	266.3901	-425.5291	630.4963	404.0153	-407.0324	547.3372	326.3555	-410.1328	435.1199	209.5764	-411.0503	468.2846	189.8245	-503.1351	379.9179	250.5391	-468.0891	442.148	87.981	-388.7734	464.8756	56.5841	-481.3848	1011.9604	766.2572	-743.288	1045.7201	663.4385	-730.2133	935.4678	735.2255	-758.887	971.5427	633.6699	-739.5027	1059.7955	512.4381	-605.972	1070.826	519.217	-714.2356	1096.6553	386.0877	-731.1076	1016.4048	381.5591	-748.0194	1024.6431	272.2917	-741.4227	1082.1627	80.1525	-735.1359	1110.2817	90.7339	-634.1145	1018.9115	37.265	-680.1765	1192.369	37.4628	-747.8428	1231.1169	49.673	-647.4677	898.3075	1430.9369	-433.4634	840.7029	1411.1183	-753.3026	817.6831	1462.1946	-587.96	782.3424	1134.5066	-573.1743	950.7449	1363.1157	-602.5753	982.4451	1222.16	-590.9708	747.586	1367.136	-489.928
1129	11.28	936.4613	1018.2438	-440.0094	746.9037	1025.7633	-541.9773	740.6513	1023.4877	-587.4346	748.6897	1032.21	-636.9487	929.5558	1034.4104	-733.2866	894.3509	683.9888	-423.3865	813.6083	685.864	-412.1248	810.7218	576.1063	-420.4897	823.8729	449.3475	-540.239	816.0613	460.8138	-423.3485	698.7109	342.664	-413.8989	612.6999	270.4956	-426.9826	646.1717	407.2731	-408.3868	560.6232	332.1208	-411.2427	445.1575	220.7947	-412.014	477.3915	198.3787	-504.1511	393.2433	266.329	-469.3545	443.1416	98.3322	-390.0409	464.0466	63.2845	-481.7285	1011.9315	767.6793	-745.1326	1044.852	664.6083	-732.1955	935.2515	737.305	-761.0172	970.3961	635.4199	-741.7585	1057.3603	512.986	-607.558	1068.2515	519.5057	-715.8986	1090.804	385.4982	-732.4132	1010.4742	383.3477	-750.3733	1015.4619	273.7944	-743.6127	1065.8541	79.9827	-736.0708	1094.2385	90.7245	-635.286	1001.6504	38.1682	-681.0463	1175.3737	35.0092	-748.8932	1214.4214	46.9898	-648.6721	897.5493	1432.7886	-434.8516	842.6044	1413.0856	-755.0297	817.96	1464.1751	-589.6791	782.4197	1136.4399	-574.8101	950.6463	1364.8794	-603.4904	982.3116	1223.8607	-591.6784	747.1448	1369.202	-491.9785
1130	11.29	935.6464	1019.7811	-440.9723	746.6836	1026.5106	-543.0433	740.5051	1024.5253	-588.522	748.6045	1033.6758	-637.9779	929.6782	1037.2095	-734.8347	903.3248	684.9164	-425.9866	822.782	683.9502	-414.0355	823.7016	574.1155	-422.4318	839.8798	448.6338	-542.4037	832.321	460.0222	-425.0951	713.3893	344.4525	-415.6089	625.4638	274.5059	-428.8619	662.5556	410.4202	-409.7505	575.0357	337.4446	-412.5712	456.9854	231.0241	-413.4898	488.4689	206.5041	-505.6357	407.7473	279.9841	-471.1189	447.9804	108.1931	-391.7164	467.4829	70.0832	-482.4103	1011.1332	768.6898	-747.019	1042.9729	665.3196	-734.1284	934.1516	739.1504	-762.9117	968.1677	636.8818	-743.6796	1054.001	513.3753	-608.9573	1064.3602	519.4487	-717.5154	1083.4471	384.7086	-733.7429	1003.0029	384.8122	-751.9425	1004.9334	275.0817	-745.0199	1049.0948	79.966	-736.7388	1077.7654	90.8821	-636.2341	984.2264	38.9058	-681.6928	1158.0093	33.444	-749.9055	1197.3461	45.2921	-649.865	896.5209	1434.7247	-436.0236	844.4262	1415.1886	-756.5437	818.0984	1466.3264	-591.2414	782.3585	1138.5502	-576.4329	950.403	1366.7436	-604.1703	981.9069	1225.6126	-592.1338	746.4716	1371.4264	-493.9539
1131	11.3	934.4658	1021.4792	-441.667	746.3442	1027.6517	-544.1306	740.2418	1025.9214	-589.6303	748.4282	1035.427	-639.0336	929.6465	1039.9396	-736.3326	912.1476	686.5803	-428.3823	831.8156	682.7625	-415.885	836.6215	572.9783	-424.35	855.8228	448.9696	-544.6611	848.6403	460.1241	-426.8901	728.7771	346.5184	-417.4989	639.3783	278.3784	-431.1088	679.3035	413.5012	-411.1729	590.2664	342.2726	-414.1466	470.3049	239.9471	-415.462	501.2082	213.9959	-507.5901	422.7606	291.0205	-473.2985	456.8524	117.0486	-393.7216	475.4547	76.6359	-483.5033	1009.5715	769.3065	-748.8597	1040.0944	665.5982	-735.8905	932.1818	740.7663	-764.4965	964.8982	638.0707	-745.1706	1049.5936	513.5857	-610.0605	1059.2441	519.0938	-718.9467	1074.7272	383.7743	-734.9394	994.1437	386.003	-752.7399	993.2194	276.1892	-745.7059	1032.0031	80.0577	-737.1495	1060.9392	91.1089	-636.9089	966.6702	39.5149	-682.1426	1140.3868	32.5635	-750.7706	1179.9878	44.317	-650.9049	895.2081	1436.7269	-436.962	846.1077	1417.4194	-757.8459	818.0986	1468.6266	-592.6481	782.1899	1140.8091	-578.0537	950.0325	1368.7186	-604.6385	981.2667	1227.4442	-592.3763	745.5753	1373.7494	-495.906
